{
    "asset" : {
        "generator" : "Khronos glTF Blender I/O v3.4.50",
        "version" : "2.0"
    },
    "scene" : 0,
    "scenes" : [
        {
            "name" : "Scene",
            "nodes" : [
                0,
                1,
                2
            ]
        }
    ],
    "nodes" : [
        {
            "mesh" : 0,
            "name" : "Cube",
            "scale" : [
                1.9952422380447388,
                0.7360137701034546,
                2.9820709228515625
            ],
            "translation" : [
                0,
                0.7615635395050049,
                0
            ]
        },
        {
            "mesh" : 1,
            "name" : "Cube.001",
            "scale" : [
                0.9431555867195129,
                0.1616572141647339,
                0.5774948000907898
            ],
            "translation" : [
                -1.027600884437561,
                1.7143265008926392,
                2.444981575012207
            ]
        },
        {
            "mesh" : 2,
            "name" : "Cube.002",
            "scale" : [
                0.9431555867195129,
                0.1616572141647339,
                0.5774948000907898
            ],
            "translation" : [
                0.9272030591964722,
                1.7143265008926392,
                2.444981575012207
            ]
        }
    ],
    "materials" : [
        {
            "doubleSided" : true,
            "name" : "Material.001",
            "pbrMetallicRoughness" : {
                "baseColorFactor" : [
                    0.09947242587804794,
                    0.19218814373016357,
                    0.48689714074134827,
                    1
                ],
                "metallicFactor" : 0,
                "roughnessFactor" : 0.5
            }
        },
        {
            "doubleSided" : true,
            "name" : "Material.002",
            "pbrMetallicRoughness" : {
                "baseColorFactor" : [
                    0.09850163757801056,
                    0.04312179610133171,
                    0.013236735947430134,
                    1
                ],
                "metallicFactor" : 0,
                "roughnessFactor" : 0.5
            }
        }
    ],
    "meshes" : [
        {
            "name" : "Cube.001",
            "primitives" : [
                {
                    "attributes" : {
                        "POSITION" : 0,
                        "TEXCOORD_0" : 1,
                        "NORMAL" : 2
                    },
                    "indices" : 3,
                    "material" : 0
                },
                {
                    "attributes" : {
                        "POSITION" : 4,
                        "TEXCOORD_0" : 5,
                        "NORMAL" : 6
                    },
                    "indices" : 7,
                    "material" : 1
                }
            ]
        },
        {
            "name" : "Cube.003",
            "primitives" : [
                {
                    "attributes" : {
                        "POSITION" : 8,
                        "TEXCOORD_0" : 9,
                        "NORMAL" : 10
                    },
                    "indices" : 11
                }
            ]
        },
        {
            "name" : "Cube.004",
            "primitives" : [
                {
                    "attributes" : {
                        "POSITION" : 12,
                        "TEXCOORD_0" : 13,
                        "NORMAL" : 14
                    },
                    "indices" : 11
                }
            ]
        }
    ],
    "accessors" : [
        {
            "bufferView" : 0,
            "componentType" : 5126,
            "count" : 772,
            "max" : [
                1.0429320335388184,
                1,
                1.0419949293136597
            ],
            "min" : [
                -1.0429320335388184,
                -0.20168352127075195,
                -1.0419949293136597
            ],
            "type" : "VEC3"
        },
        {
            "bufferView" : 1,
            "componentType" : 5126,
            "count" : 772,
            "type" : "VEC2"
        },
        {
            "bufferView" : 2,
            "componentType" : 5126,
            "count" : 772,
            "type" : "VEC3"
        },
        {
            "bufferView" : 3,
            "componentType" : 5123,
            "count" : 1458,
            "type" : "SCALAR"
        },
        {
            "bufferView" : 4,
            "componentType" : 5126,
            "count" : 234,
            "max" : [
                1.003636121749878,
                0.399158239364624,
                1
            ],
            "min" : [
                -1.003636360168457,
                -1,
                -1.0419949293136597
            ],
            "type" : "VEC3"
        },
        {
            "bufferView" : 5,
            "componentType" : 5126,
            "count" : 234,
            "type" : "VEC2"
        },
        {
            "bufferView" : 6,
            "componentType" : 5126,
            "count" : 234,
            "type" : "VEC3"
        },
        {
            "bufferView" : 7,
            "componentType" : 5123,
            "count" : 510,
            "type" : "SCALAR"
        },
        {
            "bufferView" : 8,
            "componentType" : 5126,
            "count" : 343,
            "max" : [
                1,
                1,
                1
            ],
            "min" : [
                -1,
                -1,
                -1
            ],
            "type" : "VEC3"
        },
        {
            "bufferView" : 9,
            "componentType" : 5126,
            "count" : 343,
            "type" : "VEC2"
        },
        {
            "bufferView" : 10,
            "componentType" : 5126,
            "count" : 343,
            "type" : "VEC3"
        },
        {
            "bufferView" : 11,
            "componentType" : 5123,
            "count" : 1680,
            "type" : "SCALAR"
        },
        {
            "bufferView" : 12,
            "componentType" : 5126,
            "count" : 343,
            "max" : [
                1,
                1,
                1
            ],
            "min" : [
                -1,
                -1,
                -1
            ],
            "type" : "VEC3"
        },
        {
            "bufferView" : 13,
            "componentType" : 5126,
            "count" : 343,
            "type" : "VEC2"
        },
        {
            "bufferView" : 14,
            "componentType" : 5126,
            "count" : 343,
            "type" : "VEC3"
        }
    ],
    "bufferViews" : [
        {
            "buffer" : 0,
            "byteLength" : 9264,
            "byteOffset" : 0,
            "target" : 34962
        },
        {
            "buffer" : 0,
            "byteLength" : 6176,
            "byteOffset" : 9264,
            "target" : 34962
        },
        {
            "buffer" : 0,
            "byteLength" : 9264,
            "byteOffset" : 15440,
            "target" : 34962
        },
        {
            "buffer" : 0,
            "byteLength" : 2916,
            "byteOffset" : 24704,
            "target" : 34963
        },
        {
            "buffer" : 0,
            "byteLength" : 2808,
            "byteOffset" : 27620,
            "target" : 34962
        },
        {
            "buffer" : 0,
            "byteLength" : 1872,
            "byteOffset" : 30428,
            "target" : 34962
        },
        {
            "buffer" : 0,
            "byteLength" : 2808,
            "byteOffset" : 32300,
            "target" : 34962
        },
        {
            "buffer" : 0,
            "byteLength" : 1020,
            "byteOffset" : 35108,
            "target" : 34963
        },
        {
            "buffer" : 0,
            "byteLength" : 4116,
            "byteOffset" : 36128,
            "target" : 34962
        },
        {
            "buffer" : 0,
            "byteLength" : 2744,
            "byteOffset" : 40244,
            "target" : 34962
        },
        {
            "buffer" : 0,
            "byteLength" : 4116,
            "byteOffset" : 42988,
            "target" : 34962
        },
        {
            "buffer" : 0,
            "byteLength" : 3360,
            "byteOffset" : 47104,
            "target" : 34963
        },
        {
            "buffer" : 0,
            "byteLength" : 4116,
            "byteOffset" : 50464,
            "target" : 34962
        },
        {
            "buffer" : 0,
            "byteLength" : 2744,
            "byteOffset" : 54580,
            "target" : 34962
        },
        {
            "buffer" : 0,
            "byteLength" : 4116,
            "byteOffset" : 57324,
            "target" : 34962
        }
    ],
    "buffers" : [
        {
            "byteLength" : 61440,
            "uri" : "cama.bin"
        }
    ]
}
