{
	"asset":{
		"generator":"Khronos glTF Blender I/O v4.3.47",
		"version":"2.0"
	},
	"scene":0,
	"scenes":[
		{
			"name":"Scene",
			"nodes":[
				0
			]
		}
	],
	"nodes":[
		{
			"mesh":0,
			"name":"Cube",
			"scale":[
				1,
				0.10321223735809326,
				1
			]
		}
	],
	"materials":[
		{
			"doubleSided":true,
			"name":"Material",
			"pbrMetallicRoughness":{
				"baseColorFactor":[
					0.04020703211426735,
					0.012177670374512672,
					0.009563351981341839,
					1
				],
				"metallicFactor":0,
				"roughnessFactor":0.5
			}
		}
	],
	"meshes":[
		{
			"name":"Cube",
			"primitives":[
				{
					"attributes":{
						"POSITION":0,
						"NORMAL":1,
						"TEXCOORD_0":2
					},
					"indices":3,
					"material":0
				}
			]
		}
	],
	"accessors":[
		{
			"bufferView":0,
			"componentType":5126,
			"count":553,
			"max":[
				1.6458405256271362,
				1.6458406448364258,
				1.6458405256271362
			],
			"min":[
				-1.6458405256271362,
				-24.078174591064453,
				-1.6458405256271362
			],
			"type":"VEC3"
		},
		{
			"bufferView":1,
			"componentType":5126,
			"count":553,
			"type":"VEC3"
		},
		{
			"bufferView":2,
			"componentType":5126,
			"count":553,
			"type":"VEC2"
		},
		{
			"bufferView":3,
			"componentType":5123,
			"count":1458,
			"type":"SCALAR"
		}
	],
	"bufferViews":[
		{
			"buffer":0,
			"byteLength":6636,
			"byteOffset":0,
			"target":34962
		},
		{
			"buffer":0,
			"byteLength":6636,
			"byteOffset":6636,
			"target":34962
		},
		{
			"buffer":0,
			"byteLength":4424,
			"byteOffset":13272,
			"target":34962
		},
		{
			"buffer":0,
			"byteLength":2916,
			"byteOffset":17696,
			"target":34963
		}
	],
	"buffers":[
		{
			"byteLength":20612,
			"uri":"mesa%20cocina.bin"
		}
	]
}
